<?xml version="1.0" encoding="UTF-8" standalone="no"?>
<!-- Uploaded to: SVG Repo, www.svgrepo.com, Generator: SVG Repo Mixer Tools -->

<svg
   fill="#000000"
   height="800"
   width="800"
   id="Layer_1"
   data-name="Layer 1"
   viewBox="0 0 16 16"
   version="1.1"
   xmlns="http://www.w3.org/2000/svg"
   xmlns:svg="http://www.w3.org/2000/svg">
  <defs
     id="defs1" />
  <path
     d="M 10.232471,4.1914881 C 9.8167761,4.0942538 8.5569958,3.6932989 7.9271033,4.2955698 7.6373771,4.5651547 7.4944641,4.9309131 7.4460264,5.3183308 L 7.2936025,6.3889273 H 9.4860706 V 7.8538754 H 6.9888259 L 6.542406,10.667633 c -0.072334,0.547082 -0.2589194,1.074424 -0.5485267,1.550289 -0.7806107,1.224436 -2.1812537,1.501777 -3.3121867,1.495779 -0.04915,0 -0.837172,-0.0016 -1.406009,-0.123291 l 0.0017,-1.945071 c 0,0 1.063502,0.70346 2.303596,-0.121702 0.66104,-0.479924 0.710368,-2.4717695 0.894716,-3.6696474 H 2.7684836 V 6.3889273 h 2.127868 l 0.21231,-1.3276581 c 0.2781075,-2.299082 2.2776032,-2.7529497 3.7144398,-2.7750649 0.4909271,0 0.9496512,0.041981 1.4093936,0.1149263 z"
     id="path2"
     style="fill:#5f5f5f;fill-opacity:1;stroke-width:1.16481" />
  <path
     d="M 14.228441,13.509491 H 12.361824 L 11.450904,12.04308 10.20051,13.509491 H 8.3714829 L 10.599298,11.057378 8.9205478,8.6119855 h 1.8662372 l 0.896609,1.4369275 1.206255,-1.4369275 h 1.834667 L 12.527259,11.02417 Z"
     id="path1"
     style="fill:#5f5f5f;fill-opacity:1;stroke-width:1.16481" />
</svg>
