<?xml version="1.0" encoding="UTF-8" standalone="no"?>
<svg
   version="1.1"
   width="127"
   height="153"
   id="svg11"
   xmlns="http://www.w3.org/2000/svg"
   xmlns:svg="http://www.w3.org/2000/svg">
  <defs
     id="defs11" />
  <path
     d="m 43.717395,3.2721375 c 0.750196,46.8286615 1.81435,94.9650175 -0.646722,145.8704325 -0.08048,1.66472 -1.634405,3.02779 -2.61271,3.31408 -3.02171,0.75543 -6.050732,0.35618 -7.892547,-0.79147 -10.159108,-8.7508 -21.995514,-19.49021 -31.5306,-28.3136 C 0.445803,122.56682 0.534946,122.23628 0.5,121.4375 0.47255,115.44411 0.4968,35.505026 0.48938,30.604253 0.52215,29.733443 0.55704,29.708326 1.326966,29.107101 4.475252,26.634344 9.025059,22.993386 32.989179,2.5536505 35.76221,0.35773558 36.317916,0.48603627 39.876581,0.96052482 c 0,0 3.78317,0.23849918 3.840817,2.31161268 z"
     fill="#ccc740"
     id="path2"
     style="fill:#e0e0e0;" />
  <path
     d="m 79.283471,76.210248 c 0.338561,0.143237 33.892189,28.552042 44.745679,39.970022 2.27636,2.39475 2.5735,4.82061 1.03382,6.65024 -4.01927,4.1593 -15.77227,15.61058 -22.69925,21.04495 -1.34821,1.0577 -4.079481,0.52189 -4.541286,0.54119 -8.290537,-3.2147 -22.123992,-21.69655 -46.208841,-41.602 C 69.213479,85.577358 69.873421,85.091446 79.283471,76.210248 Z"
     fill="#17a1c3"
     id="path3"
     style="fill:#e0e0e0;" />
  <path
     d="M 43.712738,57.198874 C 64.850245,37.404952 71.603958,32.377495 96.666338,9.7562332 98.511631,8.014176 100.05333,7.360628 102.1875,7.9375 c 4.32026,1.9960103 13.74348,11.346173 22.76964,20.16791 1.25751,1.297626 0.99585,3.037526 -0.47162,4.380459 -7.82682,7.833663 -63.734321,61.768159 -80.208448,77.680501 0.240984,-30.232229 -1.1842,-32.83259 -0.564334,-52.967496 z"
     fill="#29aca5"
     id="path1"
     style="fill:#e0e0e0;" />
</svg>
